<svg width="40" height="40" viewBox="0 0 40 40" fill="none" xmlns="http://www.w3.org/2000/svg">
<path d="M20 37.9334C18.1833 37.9334 16.3833 37.4 14.9667 36.35L7.79999 31C5.89999 29.5834 4.41666 26.6167 4.41666 24.2667V11.8667C4.41666 9.30002 6.29999 6.56669 8.71666 5.66669L17.0333 2.55002C18.6833 1.93336 21.2833 1.93336 22.9333 2.55002L31.25 5.66669C33.6667 6.56669 35.55 9.30002 35.55 11.8667V24.25C35.55 26.6167 34.0667 29.5667 32.1667 30.9834L25 36.3334C23.6167 37.4 21.8167 37.9334 20 37.9334ZM17.9167 4.90002L9.59999 8.01669C8.18332 8.55002 6.93332 10.35 6.93332 11.8834V24.2667C6.93332 25.85 8.04999 28.0667 9.29999 29L16.4667 34.35C18.3833 35.7834 21.6167 35.7834 23.55 34.35L30.7167 29C31.9833 28.05 33.0833 25.85 33.0833 24.2667V11.8667C33.0833 10.35 31.8333 8.55002 30.4167 8.00002L22.1 4.88336C20.9667 4.48336 19.0333 4.48336 17.9167 4.90002Z" fill="black"/>
<path d="M17.7667 23.7166C17.45 23.7166 17.1333 23.6 16.8833 23.35L14.2 20.6666C13.7167 20.1833 13.7167 19.3833 14.2 18.9C14.6833 18.4166 15.4833 18.4166 15.9667 18.9L17.7667 20.7L24.05 14.4166C24.5333 13.9333 25.3333 13.9333 25.8167 14.4166C26.3 14.9 26.3 15.7 25.8167 16.1833L18.65 23.35C18.4 23.6 18.0833 23.7166 17.7667 23.7166Z" fill="black"/>
</svg>
