<?xml version="1.0" ?><!DOCTYPE svg  PUBLIC '-//W3C//DTD SVG 1.1//EN'  'http://www.w3.org/Graphics/SVG/1.1/DTD/svg11.dtd'><svg enable-background="new 0 0 512 512" height="512px" id="Layer_1" version="1.1" viewBox="0 0 512 512" width="512px" xml:space="preserve" xmlns="http://www.w3.org/2000/svg" xmlns:xlink="http://www.w3.org/1999/xlink"><path d="M484.748,96.359H27.439h-3.966h-9.625h-6.63v318.585H505V96.359h-17.218H484.748z M464.837,116.271  L272.529,308.578c-8.769,8.769-24.073,8.769-32.842,0L47.35,116.271H464.837z M27.128,124.203l129.287,129.268L27.128,382.759  V124.203z M43.014,395.029l127.489-127.47l55.106,55.097c8.138,8.148,18.978,12.64,30.499,12.64c11.521,0,22.361-4.492,30.499-12.64  l55.106-55.106l127.479,127.479H43.014z M485.089,382.769L355.801,253.472l129.287-129.297V382.769z" fill="white"/></svg>